<?xml version="1.0" standalone="no"?>
<!DOCTYPE svg PUBLIC "-//W3C//DTD SVG 20010904//EN"
 "http://www.w3.org/TR/2001/REC-SVG-20010904/DTD/svg10.dtd">
<svg version="1.0" xmlns="http://www.w3.org/2000/svg"
 width="397.000000pt" height="397.000000pt" viewBox="0 0 397.000000 397.000000"
 preserveAspectRatio="xMidYMid meet">

<g transform="translate(0.000000,397.000000) scale(0.100000,-0.100000)"
fill="#000000" stroke="none">
<path d="M1850 3839 c-364 -42 -692 -200 -950 -458 -181 -182 -303 -375 -384
-610 -67 -191 -80 -279 -80 -516 0 -226 12 -311 70 -498 32 -101 121 -290 134
-282 5 3 17 -6 26 -21 16 -24 21 -25 63 -19 25 4 47 8 49 10 2 2 -12 25 -31
52 -80 112 -137 258 -158 406 -14 97 -8 137 22 137 16 0 20 -5 17 -22 -2 -13
-9 -22 -17 -20 -11 2 -13 -10 -8 -65 12 -134 66 -283 149 -409 40 -62 53 -75
69 -71 11 3 47 1 80 -6 57 -10 60 -10 87 15 15 14 37 31 49 37 36 18 215 13
433 -14 210 -25 300 -31 300 -17 -1 4 -22 45 -48 92 -47 83 -49 85 -132 131
-120 66 -224 177 -285 302 -60 125 -77 197 -84 360 -5 122 -8 140 -25 153 -30
21 -34 18 -42 -33 -25 -156 2 -353 71 -518 39 -95 39 -95 25 -95 -5 0 -32 30
-60 67 -47 63 -50 64 -44 32 l6 -34 -21 25 c-48 59 -95 232 -89 330 4 57 11
53 24 -15 7 -35 9 -27 15 60 5 55 13 131 20 170 6 38 8 70 3 72 -5 2 -29 16
-53 33 -34 22 -48 26 -58 18 -10 -8 -13 -5 -13 13 0 14 -11 41 -24 60 -63 92
-81 220 -42 300 40 84 152 115 240 66 37 -21 43 -22 34 -7 -10 15 -6 25 27 62
59 66 175 164 228 193 26 15 47 24 47 20 0 -3 -18 -28 -40 -56 -45 -56 -50
-74 -20 -66 11 3 20 2 20 -2 0 -4 -34 -46 -75 -94 -88 -103 -110 -135 -101
-145 4 -4 19 7 33 23 195 234 422 353 761 400 128 17 333 19 437 5 170 -25
365 -90 503 -168 59 -34 70 -37 79 -24 16 25 46 7 39 -23 -6 -22 -3 -25 19
-25 16 0 28 -7 33 -19 4 -10 36 -42 72 -71 84 -69 223 -212 260 -269 35 -52
36 -51 11 20 -110 311 -361 618 -656 799 -300 184 -672 268 -1015 229z m78
-162 c2 -12 -3 -17 -17 -17 -12 0 -21 6 -21 13 0 31 32 34 38 4z m82 9 c0 -8
-5 -18 -10 -21 -13 -8 -42 14 -34 26 9 15 44 10 44 -5z m80 0 c0 -8 -5 -18
-10 -21 -13 -8 -42 14 -34 26 9 15 44 10 44 -5z m78 -9 c2 -11 -3 -17 -17 -17
-23 0 -35 15 -26 31 10 15 39 6 43 -14z m-313 -7 c0 -8 -10 -16 -22 -18 -22
-3 -32 16 -16 32 12 11 38 2 38 -14z m393 3 c5 -17 -26 -29 -40 -15 -6 6 -7
15 -3 22 9 14 37 9 43 -7z m-473 -14 c0 -8 -10 -15 -22 -17 -25 -4 -33 22 -10
31 18 8 32 2 32 -14z m550 -10 c-9 -14 -45 -11 -45 4 0 8 3 17 6 20 10 9 46
-12 39 -24z m-627 -6 c5 -17 -26 -29 -40 -15 -6 6 -7 15 -3 22 9 14 37 9 43
-7z m700 -6 c2 -12 -3 -17 -17 -17 -15 0 -21 6 -21 21 0 25 33 22 38 -4z
m-778 -17 c0 -13 -7 -20 -20 -20 -19 0 -27 20 -13 33 13 14 33 6 33 -13z m844
14 c23 -9 20 -34 -3 -34 -22 0 -35 15 -26 30 7 12 8 12 29 4z m-914 -38 c0
-18 -30 -30 -43 -17 -5 5 -6 14 -3 20 10 16 46 13 46 -3z m1000 -7 c0 -25 -33
-22 -38 4 -2 12 3 17 17 17 15 0 21 -6 21 -21z m-1075 -18 c3 -6 -3 -15 -14
-21 -21 -11 -37 2 -26 20 8 13 32 13 40 1z m1151 -2 c3 -6 2 -15 -3 -20 -13
-13 -43 -1 -43 17 0 16 36 19 46 3z m-1226 -34 c0 -16 -27 -32 -37 -22 -3 4
-3 13 0 22 8 20 37 20 37 0z m1284 9 c23 -9 20 -34 -3 -34 -22 0 -35 15 -26
30 7 12 8 12 29 4z m-1350 -43 c9 -15 -23 -36 -36 -23 -5 5 -7 15 -4 21 9 13
33 14 40 2z m1434 -8 c5 -17 -26 -29 -40 -15 -6 6 -7 15 -3 22 9 14 37 9 43
-7z m-1498 -37 c0 -18 -30 -30 -43 -17 -5 5 -6 14 -3 20 10 16 46 13 46 -3z
m1559 0 c9 -10 9 -16 1 -21 -16 -10 -40 2 -40 20 0 19 24 20 39 1z m-1629 -46
c0 -13 -7 -20 -20 -20 -19 0 -27 20 -13 33 13 14 33 6 33 -13z m1696 -1 c3 -6
1 -16 -4 -21 -13 -13 -45 8 -36 23 7 12 31 11 40 -2z m-1756 -43 c0 -19 -17
-29 -37 -22 -12 5 -13 9 -3 21 16 19 40 19 40 1z m1820 -11 c0 -19 -20 -29
-32 -17 -15 15 -2 43 17 36 8 -3 15 -12 15 -19z m-1880 -39 c0 -20 -26 -40
-35 -26 -10 16 2 40 20 40 8 0 15 -6 15 -14z m1935 -16 c0 -22 -29 -18 -33 3
-3 14 1 18 15 15 10 -2 18 -10 18 -18z m-1995 -45 c0 -16 -27 -32 -37 -22 -3
4 -3 13 0 22 8 20 37 20 37 0z m2051 -1 c10 -13 10 -17 -2 -24 -17 -11 -45 13
-35 29 10 15 21 14 37 -5z m-2106 -44 c7 -12 -12 -40 -26 -40 -10 0 -12 34 -2
43 9 10 21 9 28 -3z m-51 -59 c9 -14 -4 -41 -20 -41 -8 0 -14 8 -14 18 0 29
22 43 34 23z m-44 -76 c0 -16 -27 -32 -37 -22 -3 4 -3 13 0 22 8 20 37 20 37
0z m-46 -54 c9 -14 -4 -41 -20 -41 -8 0 -14 8 -14 18 0 29 22 43 34 23z m-39
-71 c10 -16 -16 -43 -28 -31 -11 11 -2 41 12 41 5 0 13 -5 16 -10z m-35 -79
c0 -24 -18 -37 -31 -24 -13 13 -1 43 17 43 8 0 14 -9 14 -19z m-33 -67 c8 -21
-13 -42 -28 -27 -13 13 -5 43 11 43 6 0 13 -7 17 -16z m-27 -84 c0 -13 -7 -20
-20 -20 -19 0 -27 20 -13 33 13 14 33 6 33 -13z m-26 -59 c9 -14 -4 -41 -20
-41 -8 0 -14 8 -14 18 0 29 22 43 34 23z m-17 -87 c1 -5 -2 -16 -7 -24 -12
-20 -35 2 -26 25 6 17 27 16 33 -1z m-17 -84 c0 -11 -6 -20 -13 -20 -19 0 -27
10 -20 26 8 21 33 17 33 -6z m-10 -81 c0 -20 -24 -26 -35 -9 -8 13 14 42 26
34 5 -3 9 -14 9 -25z m-10 -74 c0 -16 -6 -25 -15 -25 -15 0 -21 31 -8 43 13
14 23 6 23 -18z m-5 -80 c0 -10 -6 -20 -12 -22 -8 -3 -13 5 -13 22 0 17 5 25
13 23 6 -3 12 -13 12 -23z m5 -81 c0 -31 -23 -28 -28 4 -2 15 2 22 12 22 11 0
16 -9 16 -26z m7 -70 c8 -21 -13 -42 -28 -27 -13 13 -5 43 11 43 6 0 13 -7 17
-16z m29 -173 c-11 -18 -36 -13 -36 7 0 10 3 22 7 26 10 10 37 -20 29 -33z
m18 -58 c8 -19 -8 -38 -23 -29 -16 10 -13 46 3 46 8 0 17 -8 20 -17z m24 -87
c3 -13 -1 -17 -14 -14 -11 2 -20 11 -22 22 -3 13 1 17 14 14 11 -2 20 -11 22
-22z m26 -63 c8 -19 -8 -38 -23 -29 -16 10 -13 46 3 46 8 0 17 -8 20 -17z m28
-95 c-16 -16 -37 4 -28 28 6 16 8 16 23 1 13 -13 14 -19 5 -29z m36 -56 c2
-14 -2 -22 -11 -22 -17 0 -30 27 -21 41 9 16 29 4 32 -19z m40 -70 c2 -14 -2
-22 -11 -22 -17 0 -30 27 -21 41 9 16 29 4 32 -19z"/>
<path d="M2260 3319 c-52 -4 -113 -12 -135 -17 l-40 -9 40 -11 c22 -7 56 -12
75 -12 32 0 199 -42 295 -74 80 -27 252 -103 296 -130 24 -15 72 -44 106 -64
122 -73 251 -200 293 -287 64 -135 72 -192 40 -263 l-20 -43 27 -52 c58 -116
107 -305 119 -464 6 -81 9 -93 25 -93 26 0 24 -31 -2 -37 -16 -5 -19 -11 -14
-33 3 -16 2 -37 -3 -47 -6 -10 -17 -61 -26 -114 -8 -53 -18 -103 -21 -111 -4
-10 5 -18 31 -26 21 -6 41 -9 46 -6 17 11 107 203 142 303 67 191 80 279 81
521 0 283 -11 340 -93 453 -74 103 -211 248 -212 225 0 -25 -40 -24 -40 0 0
10 5 23 12 30 12 12 2 17 -28 13 -7 -1 -21 14 -32 32 -24 42 -157 132 -273
186 -226 106 -456 149 -689 130z m1080 -460 c0 -14 -5 -19 -17 -17 -26 5 -29
38 -4 38 15 0 21 -6 21 -21z m30 -68 c0 -28 -17 -35 -29 -13 -11 21 -6 32 16
32 7 0 13 -9 13 -19z m25 -76 c0 -10 -5 -20 -11 -22 -13 -4 -27 24 -18 38 9
15 29 4 29 -16z m25 -75 c0 -11 -7 -20 -15 -20 -8 0 -15 9 -15 20 0 11 7 20
15 20 8 0 15 -9 15 -20z m20 -81 c0 -10 -7 -19 -15 -19 -15 0 -21 31 -9 43 11
10 24 -3 24 -24z m17 -65 c8 -21 -13 -42 -28 -27 -13 13 -5 43 11 43 6 0 13
-7 17 -16z m10 -80 c8 -21 -13 -42 -28 -27 -13 13 -5 43 11 43 6 0 13 -7 17
-16z m1 -86 c-2 -13 -7 -23 -13 -23 -5 0 -11 10 -13 23 -2 15 2 22 13 22 11 0
15 -7 13 -22z m7 -83 c0 -28 -29 -25 -33 3 -3 19 0 23 15 20 10 -2 18 -12 18
-23z m-7 -77 c-2 -13 -7 -23 -13 -23 -5 0 -11 10 -13 23 -2 15 2 22 13 22 11
0 15 -7 13 -22z m-1 -74 c7 -18 -17 -38 -31 -24 -11 11 -1 40 14 40 6 0 13 -7
17 -16z m-9 -81 c-5 -26 -38 -29 -38 -4 0 15 6 21 21 21 14 0 19 -5 17 -17z
m-18 -78 c0 -19 -20 -29 -32 -17 -8 8 -7 16 2 26 14 17 30 12 30 -9z m-20 -74
c0 -24 -18 -37 -31 -24 -13 13 -1 43 17 43 8 0 14 -9 14 -19z"/>
<path d="M1463 2907 c-17 -23 -51 -73 -75 -112 -42 -69 -43 -72 -46 -171 -3
-88 -1 -108 19 -155 31 -72 170 -329 178 -329 7 0 41 82 83 199 l30 85 -17 70
c-10 39 -29 103 -42 141 -48 137 -71 214 -78 264 -4 28 -10 51 -13 51 -4 0
-21 -20 -39 -43z"/>
<path d="M1341 2886 c-6 -7 -8 -21 -5 -31 6 -15 9 -15 20 6 7 13 13 27 14 32
0 12 -17 8 -29 -7z"/>
<path d="M914 2842 c14 -93 91 -203 168 -243 40 -21 73 -25 63 -9 -4 6 -11 7
-17 4 -6 -4 -8 -2 -5 3 4 6 -1 17 -10 24 -14 12 -16 12 -8 -1 5 -9 4 -12 -1
-7 -5 5 -9 14 -10 20 -3 34 -18 57 -33 53 -9 -3 -23 5 -34 19 -10 14 -13 25
-7 25 5 0 10 10 10 22 0 21 -1 21 -14 3 -12 -17 -13 -17 -20 8 -3 14 -25 48
-48 74 l-41 48 7 -43z m24 -23 c-3 -8 -7 -3 -11 10 -4 17 -3 21 5 13 5 -5 8
-16 6 -23z m37 -30 c9 -17 14 -36 12 -42 -4 -10 -37 51 -37 68 0 13 11 2 25
-26z"/>
<path d="M1262 2379 c-4 -57 19 -204 44 -280 33 -101 87 -188 163 -264 53 -54
161 -127 161 -110 0 20 -85 169 -115 201 -24 25 -35 45 -31 57 3 12 -14 58
-40 111 -64 128 -167 316 -174 316 -3 0 -7 -14 -8 -31z"/>
<path d="M3128 2317 l-65 -73 25 -94 c21 -81 25 -119 26 -255 1 -160 -13 -263
-49 -366 -13 -36 -13 -41 8 -64 22 -26 23 -26 116 -18 l95 8 12 48 c11 45 11
47 -6 42 -10 -3 -21 -1 -25 5 -9 14 15 42 31 36 7 -3 15 2 18 10 3 8 1 14 -4
14 -16 0 -11 36 6 51 14 12 16 35 12 174 -6 204 -37 346 -110 502 l-24 52 -66
-72z m132 -816 c0 -24 -18 -37 -31 -24 -13 13 -1 43 17 43 8 0 14 -9 14 -19z"/>
<path d="M2940 2204 c-30 -19 -54 -39 -52 -45 1 -6 -3 -7 -9 -4 -6 4 -28 -10
-50 -31 l-39 -38 0 -115 c0 -142 -26 -257 -86 -380 -23 -47 -41 -88 -39 -92 4
-6 146 9 153 16 8 8 14 85 7 85 -4 0 -14 -8 -22 -17 -13 -17 -14 -17 -9 2 15
53 53 139 64 143 17 5 16 -98 -2 -165 l-14 -53 33 0 c18 0 38 6 44 14 7 8 21
59 33 113 33 160 16 400 -36 505 -13 26 -13 27 43 62 31 19 52 35 46 35 -5 0
-35 -16 -65 -35z"/>
<path d="M2992 2210 c-25 -15 -32 -25 -27 -38 52 -134 68 -378 36 -541 -11
-57 -18 -108 -15 -112 20 -34 53 38 86 186 21 99 15 323 -11 433 -13 50 -26
92 -29 92 -4 0 -22 -9 -40 -20z"/>
<path d="M2829 2193 c-13 -16 -12 -17 4 -4 16 13 21 21 13 21 -2 0 -10 -8 -17
-17z"/>
<path d="M2728 2048 c-19 -15 -58 -115 -119 -308 -30 -92 -52 -143 -69 -160
-14 -14 -41 -45 -60 -69 l-34 -44 67 7 c100 10 107 15 154 102 64 123 84 198
90 352 6 133 3 144 -29 120z"/>
<path d="M1600 2025 c0 -7 121 -229 131 -240 5 -5 9 -16 9 -25 0 -10 14 -36
30 -58 29 -41 32 -42 88 -42 32 0 62 4 68 10 6 6 29 3 64 -7 l55 -17 -50 -12
c-27 -7 -78 -13 -112 -13 -38 -1 -63 -5 -63 -12 0 -6 17 -42 37 -80 33 -63 39
-68 62 -62 40 9 78 31 94 53 14 20 15 19 51 -15 44 -41 80 -50 204 -50 l93 0
45 47 45 47 -38 10 c-21 6 -49 13 -63 15 -14 3 -2 3 25 1 65 -4 147 11 161 31
19 24 5 51 -52 103 -128 117 -427 249 -683 301 -90 18 -201 27 -201 15z m697
-441 c-3 -3 -12 -4 -19 -1 -8 3 -5 6 6 6 11 1 17 -2 13 -5z"/>
</g>
</svg>
